<svg width="512" height="512" viewBox="0 0 512 512" fill="none" xmlns="http://www.w3.org/2000/svg">
    <g clip-path="url(#clip0_10_10358)">
        <rect width="512" height="512" fill="#F2F2F2" />
        <path d="M287.256 207.958L344.591 179.814L319.936 230.039L435.5 260.5L313.239 292.725L344.591 356.591L284.308 326.998L256 461L227.729 327.179L167.814 356.591L199.118 292.818L76.5 260.5L192.422 229.945L167.814 179.814L224.781 207.778L256 60L287.256 207.958Z" fill="#443593" fill-opacity="0.5" />
        <path d="M192.444 204.444L255.888 235.588L319.333 204.444L288.189 267.888L319.333 331.332L255.888 300.189L192.444 331.332L223.588 267.888L192.444 204.444Z" fill="#48379F" fill-opacity="0.72" />
        <path d="M256 198L272.881 243.619L318.5 260.5L272.881 277.381L256 323L239.119 277.381L193.5 260.5L239.119 243.619L256 198Z" fill="white" />
    </g>
    <defs>
        <clipPath id="clip0_10_10358">
            <rect width="512" height="512" fill="white" />
        </clipPath>
    </defs>
</svg>