<svg width="1024" height="1024" viewBox="0 0 1024 1024" fill="none" xmlns="http://www.w3.org/2000/svg">
    <path d="M588.38 382.919L729.398 313.696L668.757 437.231L953 512.152L652.288 591.412L729.398 748.498L581.127 675.714L511.5 1005.3L441.966 676.156L294.597 748.498L371.593 591.645L70 512.152L355.124 436.999L294.597 313.696L434.713 382.477L511.5 19L588.38 382.919Z" fill="#9890BD" />
    <path d="M355.177 374.276L511.225 450.878L667.273 374.276L590.672 530.324L667.273 686.372L511.225 609.771L355.177 686.372L431.779 530.324L355.177 374.276Z" fill="#B7ACF0" />
    <path d="M511.5 358.382L552.959 470.423L665 511.882L552.959 553.341L511.5 665.382L470.041 553.341L358 511.882L470.041 470.423L511.5 358.382Z" fill="white" />
</svg>