<svg xmlns="http://www.w3.org/2000/svg" width="1024" height="1024" viewBox="0 0 1024 1024" fill="none">
<path d="M574.514 415.916L689.182 359.628L639.871 460.079L871 521L626.479 585.449L689.182 713.182L568.616 653.998L512 922L455.459 654.358L335.628 713.182L398.236 585.639L153 521L384.845 459.891L335.628 359.628L449.562 415.556L512 120L574.514 415.916Z" fill="#443593" fill-opacity="0.5"/>
<path d="M384.888 408.888L511.777 471.176L638.665 408.888L576.378 535.777L638.665 662.665L511.777 600.378L384.888 662.665L447.176 535.777L384.888 408.888Z" fill="#48379F" fill-opacity="0.72"/>
<path d="M512 396L545.761 487.239L637 521L545.761 554.761L512 646L478.239 554.761L387 521L478.239 487.239L512 396Z" fill="white"/>
</svg>